<svg width="327" height="350" viewBox="0 0 327 350" fill="none" xmlns="http://www.w3.org/2000/svg">
<path d="M204.108 101.232C208.191 99.6945 209.156 96.1506 210.105 92.3944C212.599 82.5346 215.3 72.7272 217.924 62.9004C218.974 58.9681 219.545 58.6811 223.184 60.2973C230.76 63.6616 238.386 66.9234 245.86 70.5014C247.56 71.3155 249.074 73.0387 250.062 74.7061C251.734 77.5287 252.919 80.6401 254.416 83.8627C259.429 80.9081 263.53 78.1813 265.101 71.9604C270.054 52.3492 275.707 32.9142 281.159 13.4307C281.456 12.3723 282.172 11.0597 283.069 10.6005C289.938 7.08358 296.9 3.74901 304.565 0C303.91 5.68511 303.336 10.7493 302.741 15.811C302.147 20.8636 301.37 25.9015 300.985 30.9696C300.737 34.2416 299.943 37.0472 297.133 38.9644C294.605 40.6885 293.979 43.2198 293.593 46.0836C291.972 58.1412 290.187 70.1768 288.452 82.2189C288.36 82.8539 288.171 83.4748 288.037 84.059C285.583 84.3957 283.214 84.419 281.036 85.0737C273.222 87.4215 268.436 92.702 267.189 100.785C266.822 103.165 265.827 104.432 263.863 105.598C252.074 112.594 240.386 119.76 228.575 126.719C227.251 127.499 225.276 127.808 223.758 127.519C215.927 126.033 209.329 130.044 206.446 138.008C205.887 139.552 204.511 141.174 203.074 141.962C197.264 145.148 191.23 147.925 185.404 151.083C183.983 151.854 182.667 153.316 181.934 154.777C177.726 163.164 173.708 171.647 169.27 180.196C168.699 179.023 168.299 177.75 168.296 176.477C168.263 164.302 168.408 152.125 168.233 139.953C168.191 136.96 169.211 135.37 171.767 134.018C187.006 125.954 202.167 117.742 217.369 109.609C226.043 104.969 234.736 100.364 243.443 95.7867C246.496 94.1822 248.503 91.1861 248.119 88.3524C247.784 85.8838 245.265 83.3256 243.084 81.5993C240.807 79.7968 237.831 78.8103 235.053 77.7466C234.158 77.404 232.703 77.6087 231.882 78.1432C227.507 80.9919 224.24 84.6069 223.213 90.0697C222.523 93.7385 221.216 97.3217 219.869 100.821C219.336 102.207 218.185 103.694 216.909 104.402C206.954 109.926 196.9 115.269 186.878 120.673C183.989 122.231 181.106 123.801 178.001 125.484C177.611 119.527 178.408 115.016 184.473 112.252C191.279 109.151 197.585 104.953 204.108 101.232ZM227.206 73.8435C227.778 72.6302 228.35 71.4169 228.921 70.2037C227.901 69.7342 226.835 68.8335 225.876 68.936C225.151 69.0135 224.141 70.3044 224.001 71.1748C223.705 73.0186 224.813 74.0255 227.206 73.8435Z" fill="#FF008C"/>
<path d="M158.797 180.562C157.949 179.682 156.808 178.945 156.302 177.9C152.598 170.245 149.131 162.473 145.318 154.873C144.462 153.166 142.764 151.58 141.063 150.654C135.246 147.487 129.224 144.7 123.362 141.613C122.352 141.081 121.335 139.92 121.006 138.841C118.299 129.966 111.848 126.057 102.757 127.803C101.719 128.002 100.362 127.642 99.4227 127.086C87.3508 119.932 75.3399 112.676 63.2794 105.503C61.5645 104.483 60.6124 103.369 60.2656 101.21C58.659 91.2103 51.5775 84.9914 41.4681 84.3284C40.8191 84.2858 40.1702 84.2406 39.1559 84.1718C38.0532 76.4766 36.95 68.85 35.8705 61.2201C35.1117 55.8567 34.56 50.4555 33.5498 45.1407C33.192 43.2586 32.1184 41.1857 30.7263 39.8971C28.0873 37.4545 26.5721 34.941 26.2437 31.1725C25.3621 21.0566 23.9455 10.9873 22.6586 0.206062C24.1798 0.848679 25.237 1.23231 26.2383 1.72859C32.0798 4.62396 37.9648 7.44096 43.6966 10.5408C44.9478 11.2175 46.1191 12.8007 46.5099 14.1954C51.8779 33.3513 57.2424 52.511 62.2558 71.7614C63.3925 76.126 65.1549 79.4722 69.1168 81.6256C70.1716 82.199 71.0865 83.0299 72.4994 84.0583C74.1481 80.6821 75.561 77.3634 77.3666 74.2742C78.2427 72.7753 79.6354 71.2347 81.1699 70.5223C88.8839 66.9413 96.7557 63.7017 104.498 60.1799C107.233 58.9359 108.528 59.4722 109.183 62.4419C110.135 66.7555 111.359 71.0092 112.613 75.7621C114.533 82.8542 116.148 89.5218 118.184 96.0585C118.734 97.8264 120.25 99.7164 121.848 100.664C129.927 105.456 138.2 109.92 146.346 114.6C147.384 115.196 148.613 116.272 148.833 117.32C149.367 119.861 149.358 122.517 149.572 125.176C149.029 125.176 148.776 125.253 148.612 125.165C135.572 118.154 122.525 111.157 109.537 104.052C108.618 103.55 107.845 102.345 107.499 101.303C105.793 96.1688 104.295 90.9657 102.624 85.8194C102.265 84.7134 101.7 83.5217 100.876 82.7434C94.3773 76.602 94.3505 76.6289 86.3022 80.2613C85.4974 80.6245 84.6658 80.9473 83.909 81.3944C79.4454 84.0312 78.027 88.0889 80.6453 92.4376C81.7993 94.3541 83.9714 95.9024 86.013 97.0022C109.171 109.477 132.379 121.862 155.622 134.178C158.034 135.456 159.189 136.874 159.129 139.766C158.951 148.393 159.135 157.028 159.098 165.659C159.077 170.627 158.902 175.594 158.797 180.562ZM102.98 72.3414C102.343 71.137 101.894 69.7353 100.958 68.8442C100.664 68.5644 98.553 69.4214 98.2004 70.1856C97.8287 70.9915 98.2247 72.6294 98.8894 73.333C100.148 74.6651 101.662 74.3973 102.98 72.3414Z" fill="#FF008C"/>
<path d="M263.781 159.108C265.758 163.429 267.765 167.496 269.362 171.718C269.969 173.322 270.154 175.452 269.638 177.055C266.601 186.514 263.331 195.899 260.049 205.277C259.633 206.465 258.904 207.736 257.949 208.513C243.626 220.158 229.242 231.727 214.865 243.306C214.542 243.565 214.137 243.721 213.522 244.063C213.104 242.527 212.741 241.198 212.347 239.753C209.693 239.372 209.602 241.349 209.817 242.849C210.81 249.785 204.73 251.747 201.09 255.331C199.827 256.574 197.298 254.588 197.267 252.354C197.192 246.936 197.212 241.518 197.198 236.1C197.184 231.014 197.065 225.924 197.214 220.843C197.278 218.675 196.468 217.397 194.729 216.254C189.191 212.616 183.737 208.852 177.937 204.851C178.692 202.256 179.761 199.947 180.882 197.522C182.183 198.007 183.083 198.342 184.106 198.854C185.264 199.547 186.298 200.064 187.468 200.763C190.368 202.469 193.134 203.994 195.985 205.635C196.342 205.844 196.613 205.936 197.049 206.203C199.881 208.56 202.575 208.92 205.552 206.48C214.884 202.25 224.003 198.1 233.03 193.757C234.352 193.121 235.653 191.755 236.247 190.411C238.691 184.874 241.406 179.365 242.997 173.565C245.222 165.455 249.388 159.607 257.632 157.102C257.72 157.075 257.774 156.938 257.843 156.853C259.034 156.391 260.224 155.93 261.658 155.374C262.314 156.541 262.981 157.728 263.781 159.108ZM249.593 195.107C247.272 195.544 245.939 197.063 246.285 199.289C246.488 200.597 247.527 202.315 248.64 202.789C249.767 203.268 251.808 202.893 252.819 202.096C255.475 200.001 253.925 196.209 249.593 195.107Z" fill="#FF008C"/>
<path d="M199.388 94.6129C188.296 100.915 177.243 106.919 166.295 113.109C164.293 114.24 162.949 114.158 160.982 113.028C151.606 107.64 142.183 102.321 132.613 97.2888C129.118 95.4512 127.033 93.1879 126.191 89.2513C125.086 84.0833 123.371 79.0456 121.772 73.7569C120.832 69.315 122.803 66.6125 127.233 66.5933C151.637 66.487 176.042 66.4674 200.446 66.5212C204.595 66.5304 206.691 69.5756 205.576 73.4244C203.552 80.4134 201.502 87.3948 199.388 94.6129ZM194.628 78.7349C195.989 77.0852 196.097 75.3838 194.102 74.3688C193.246 73.9333 191.519 74.1198 190.841 74.7388C190.199 75.324 189.923 77.5123 190.348 77.8246C191.374 78.5793 192.902 78.6507 194.628 78.7349ZM132.149 78.5285C134.726 79.8561 136.754 79.3437 136.892 77.1723C136.951 76.2522 136.408 74.9002 135.69 74.4341C134.958 73.9581 133.098 73.9237 132.756 74.4125C132.072 75.391 132.086 76.8586 132.149 78.5285Z" fill="#FF008C"/>
<path d="M170.834 189.348C171.551 187.955 172.268 186.562 173.054 184.938C177.123 175.848 181.101 166.979 185.154 158.143C185.636 157.093 186.323 155.858 187.263 155.34C193.634 151.829 200.099 148.488 206.691 145.009C207.158 145.801 207.496 146.334 207.794 146.888C210.981 152.8 216.844 155.767 222.954 154.553C229.245 153.303 233.798 148.241 234.187 141.479C234.327 139.046 235.198 137.827 237.23 136.633C248.571 129.964 259.828 123.155 271.068 116.317C273.096 115.083 274.642 114.518 276.886 116.255C280.808 119.292 285.469 119.487 290.183 118.372C291.668 118.021 293.11 117.488 294.598 117.03C295.363 119.856 294.696 121.903 292.547 123.906C284.046 131.826 275.692 139.906 267.353 147.998C265.831 149.474 264.624 150.261 262.519 148.869C261.692 148.322 260.059 148.633 258.932 148.991C257.483 149.452 256.173 150.355 254.402 151.254C243.721 156.529 233.438 161.611 223.163 166.708C210.333 173.072 197.509 179.447 184.443 185.845C179.726 187.98 175.249 190.087 170.232 192.447C170.547 190.824 170.69 190.086 170.834 189.348Z" fill="#FF008C"/>
<path d="M154.471 185.134C155.24 186.73 155.838 188.174 156.641 190.045C156.455 190.913 156.074 191.705 155.67 191.717C154.967 191.738 154.25 191.278 153.417 190.857C152.43 190.339 151.565 189.982 150.518 189.462C147.653 188.043 144.97 186.787 142.288 185.532C120.035 174.562 97.7808 163.595 75.5309 152.62C72.9594 151.351 70.4551 149.934 67.8274 148.799C66.9709 148.429 65.4997 148.322 64.8635 148.813C62.6812 150.496 61.3794 149.406 59.8127 147.902C52.2441 140.638 44.6028 133.45 36.7769 126.161C34.4677 123.547 30.8487 121.661 32.7725 117.376C34.9981 117.949 37.1812 118.511 39.9223 119.16C43.4211 118.539 46.8512 118.544 49.1806 116.945C52.1756 114.889 54.4319 114.58 57.1604 116.749C67.9214 123.264 78.6546 129.827 89.4662 136.257C91.683 137.576 93.0814 138.791 93.1498 141.769C93.2892 147.839 97.7773 152.887 103.601 154.41C109.304 155.902 115.543 153.377 118.839 148.225C119.425 147.307 119.939 146.344 120.649 145.123C127.186 148.538 133.65 151.841 140.016 155.323C140.947 155.832 141.581 157.116 142.069 158.172C146.183 167.091 150.231 176.041 154.471 185.134Z" fill="#FF008C"/>
<path d="M35.5551 160.926C36.4635 161.125 37.4952 161.516 38.315 162.171C40.8215 164.175 43.0158 166.677 45.7491 168.269C52.4154 172.15 53.7943 177.883 53.8712 185.174C54.1023 207.086 55.0828 228.99 55.5995 250.901C55.6758 254.137 56.8894 256.239 59.3376 258.132C69.0561 265.646 78.6891 273.271 88.5609 280.919C92.0951 283.719 95.3426 286.56 98.7794 289.151C100.83 290.697 101.783 292.474 101.65 295.033C101.513 297.679 101.62 300.338 101.62 303.365C100.778 302.815 100.07 302.419 99.4347 301.928C80.0874 286.976 60.7332 272.033 41.4437 257.006C40.3664 256.167 39.1992 254.66 39.1417 253.415C38.4318 238.05 37.9198 222.676 37.3669 207.304C37.3556 206.99 37.4668 206.672 37.573 206.051C39.3469 206.834 41.02 207.573 42.6931 208.311C42.9167 208.162 43.1404 208.012 43.364 207.862C42.0572 205.695 40.5513 203.619 39.4992 201.334C38.4337 199.02 37.2579 196.535 37.1002 194.064C36.4032 183.134 36.0555 172.182 35.5551 160.926Z" fill="#FF008C"/>
<path d="M237.318 281.882C247.947 273.586 258.546 265.25 269.231 257.027C271.408 255.351 271.54 253.171 271.607 250.836C272.114 233.154 272.605 215.47 273.128 197.788C273.333 190.825 273.572 183.862 273.889 176.903C273.936 175.88 274.187 174.51 274.874 173.927C280.25 169.365 285.756 164.957 291.457 160.567C291.209 171.46 290.626 182.284 290.3 193.116C290.196 196.582 289.463 199.56 287.192 202.263C285.84 203.873 284.962 205.882 283.871 207.712C284.082 207.917 284.293 208.122 284.503 208.327C286.134 207.585 287.765 206.844 289.72 205.954C289.77 206.992 289.883 207.929 289.849 208.862C289.308 223.45 288.793 238.039 288.114 252.62C288.053 253.945 287.238 255.646 286.208 256.452C266.452 271.935 246.612 287.31 226.781 302.697C226.546 302.88 226.203 302.923 225.756 303.089C225.667 302.461 225.591 301.932 225.543 300.83C225.593 297.781 225.615 295.306 225.703 292.618C225.776 292.108 225.783 291.811 225.947 291.352C229.842 288.087 233.58 284.985 237.318 281.882Z" fill="#FF008C"/>
<path d="M146.912 281.693C148.797 282.549 150.683 283.405 152.985 284.451C156.317 281.616 159.986 278.495 163.845 275.212C166.626 277.621 169.427 279.768 171.882 282.255C174.152 284.555 176.049 284.667 178.158 282.248C178.504 281.85 179.026 281.606 180.179 280.782C180.179 287.19 180.179 293.036 180.184 299.495C180.217 304.991 180.244 309.873 180.213 315.056C180.195 318.862 180.235 322.365 180.275 325.869C180.225 328.517 180.005 331.175 180.177 333.809C180.329 336.138 179.62 337.675 177.703 339.083C172.99 342.544 168.451 346.241 163.64 350C158.37 345.936 153.087 341.964 147.962 337.798C147.231 337.204 146.995 335.668 146.989 334.566C146.927 323.518 146.962 312.471 146.972 300.812C146.935 294.87 146.895 289.539 146.924 283.963C146.966 283.043 146.939 282.368 146.912 281.693ZM158.6 293.877C163.994 293.877 169.387 293.877 174.961 293.877C174.961 291.718 174.961 290.017 174.961 288.205C167.296 288.205 159.843 288.205 152.284 288.205C152.284 290.108 152.284 291.726 152.284 293.591C154.266 293.687 156.119 293.777 158.6 293.877ZM169.089 301.248C163.508 301.248 157.927 301.248 152.39 301.248C152.39 303.183 152.39 304.791 152.39 306.86C156.19 306.86 159.804 306.86 163.418 306.86C167.136 306.86 170.854 306.86 174.75 306.86C174.75 304.769 174.75 303.176 174.75 301.241C172.989 301.241 171.369 301.241 169.089 301.248ZM153.252 326.666C151.705 330.702 152.331 332.026 156.321 332.187C160.927 332.374 165.55 332.327 170.159 332.175C174.996 332.017 174.992 331.91 174.213 326.607C167.48 326.607 160.688 326.607 153.252 326.666ZM152.183 316.366C152.68 317.385 153.153 319.276 153.679 319.291C160.691 319.488 167.711 319.423 174.73 319.423C174.73 317.38 174.73 315.771 174.73 313.824C168.264 313.824 161.992 313.825 155.72 313.823C155.168 313.823 154.471 313.59 154.094 313.842C153.362 314.333 152.809 315.091 152.183 316.366Z" fill="#FF008C"/>
<path d="M297.644 69.267C303.463 63.9805 309.16 58.9254 314.897 53.8359C317.003 55.2498 317.459 56.406 315.508 58.0815C311.226 61.7589 306.977 65.4819 302.888 69.3698C301.909 70.3011 301.197 71.9162 301.085 73.2765C300.812 76.5768 300.811 79.9205 300.988 83.2314C301.184 86.907 301.003 90.2321 297.312 92.3505C296.713 92.6947 296.623 93.9275 296.298 94.7496C296.619 95.0065 296.94 95.2635 297.26 95.5204C301.893 92.2471 306.579 89.0435 311.098 85.6194C311.718 85.149 311.807 83.5304 311.633 82.5324C310.762 77.5522 312.818 74.2116 316.904 71.5243C319.82 69.6062 322.37 67.1311 325.246 64.7706C325.951 65.7874 326.437 66.4875 326.992 67.288C326.555 67.7587 326.22 68.1812 325.824 68.5355C324.588 69.6425 323.436 70.8914 322.058 71.7849C317.097 74.9991 313.855 78.92 315.084 85.3885C315.268 86.3605 314.021 87.9697 313.018 88.7384C308.894 91.8992 304.554 94.7785 300.424 97.9331C299.539 98.6097 298.657 100.024 298.698 101.061C298.941 107.188 296.46 111.604 290.869 114.055C285.574 116.376 280.365 114.848 275.679 109.923C275.46 109.692 275.166 109.531 274.676 109.165C270.51 111.722 266.295 114.316 262.074 116.9C252.739 122.618 243.444 128.405 234.032 133.993C231.74 135.353 230.923 136.674 231.302 139.459C232.142 145.628 227.863 150.762 221.716 151.61C215.917 152.409 210.547 148.529 209.667 142.749C209.056 138.735 210.287 135.242 213.512 132.717C217.01 129.978 221.074 129.217 225.02 131.313C227.717 132.744 229.588 132.18 231.904 130.725C244.639 122.729 257.432 114.826 270.25 106.963C272.283 105.716 273.274 104.417 273.415 101.779C273.868 93.2755 281.798 88.0498 290.016 90.4673C293.527 91.5002 297.17 88.8635 297.279 85.0793C297.429 79.8876 297.448 74.6922 297.644 69.267ZM283.87 110.582C288.454 111.08 291.65 109.58 293.27 106.171C294.831 102.885 294.231 99.0728 291.698 96.7372C289.129 94.3681 286.15 93.5973 282.853 94.9612C279.598 96.3079 277.793 98.8464 277.692 102.365C277.577 106.387 279.739 108.946 283.87 110.582ZM213.48 139.515C213.421 140.17 213.287 140.829 213.317 141.48C213.494 145.244 215.942 147.828 219.68 148.246C223.348 148.656 226.539 146.608 227.57 143.185C228.517 140.037 226.926 136.483 223.835 134.844C219.93 132.773 215.926 134.424 213.48 139.515Z" fill="#FF008C"/>
<path d="M34.5854 131.721C39.3391 135.451 44.1853 139.409 48.8076 143.614C49.5951 144.33 49.7084 146.115 49.6412 147.381C49.4543 150.898 50.941 153.387 53.4904 155.7C59.1 160.79 59.0171 160.885 55.3601 167.581C55.1607 167.946 54.873 168.262 54.4957 168.781C48.8165 164.018 43.2585 159.357 37.4841 154.629C36.6021 153.056 35.4646 151.586 35.3543 150.042C34.9264 144.051 34.8252 138.037 34.5854 131.721Z" fill="#FF008C"/>
<path d="M289.16 154.832C283.642 159.569 278.276 164.102 272.611 168.887C271.332 166.141 270.143 163.587 268.839 160.85C270.241 159.081 271.625 157.337 273.302 155.946C276.317 153.444 277.635 150.381 277.805 146.472C277.876 144.866 278.9 142.957 280.091 141.806C283.802 138.218 287.8 134.927 292.174 131.093C292.174 133.882 292.228 136.109 292.162 138.333C292.052 142.081 292.091 145.857 291.613 149.563C291.387 151.321 290.111 152.943 289.16 154.832Z" fill="#FF008C"/>
<path d="M40.5689 115.337C31.6167 113.172 29.029 109.951 28.4062 100.629C28.3339 99.5474 27.456 98.2178 26.5494 97.5471C22.6418 94.6561 18.6471 91.8695 14.5544 89.2475C12.545 87.9601 11.5157 86.4271 11.9268 84.081C12.7828 79.1967 11.0989 75.6743 6.79221 73.0712C4.36996 71.6071 2.37491 69.4362 0 67.4251C0.615774 66.5078 1.12533 65.7487 1.8282 64.7017C6.13581 68.2468 10.2868 71.5413 14.2578 75.0401C14.9991 75.6932 15.4486 77.2285 15.2991 78.2492C14.5066 83.6582 16.5859 87.2456 21.4559 89.6481C24.0096 90.908 26.2098 92.8692 28.6619 94.3622C29.2195 94.7017 30.1591 94.4139 30.9228 94.4148C30.6927 93.6891 30.6746 92.5445 30.1989 92.3037C26.3062 90.3325 25.9624 86.8922 26.5286 83.2899C27.9171 74.4554 25.1685 67.6952 17.3327 63.0256C15.1811 61.7434 13.4833 59.714 11.5194 58.0977C9.73991 56.6332 9.47556 55.3363 11.9814 53.9193C17.6026 58.7665 23.3341 63.6199 28.9217 68.6337C29.6666 69.3021 29.9521 70.7756 29.9866 71.8907C30.12 76.202 30.0488 80.5194 30.0858 84.8342C30.1213 88.9674 33.5188 91.5656 37.4154 90.4724C45.7031 88.147 53.5464 93.65 53.9421 102.32C54.0487 104.657 54.9384 105.878 56.7977 107.003C70.1286 115.073 83.4332 123.187 96.689 131.38C98.4826 132.489 99.7748 132.565 101.744 131.58C106.053 129.424 110.362 129.901 114.115 133.106C117.582 136.067 118.638 139.966 117.381 144.215C116.115 148.493 112.962 151.014 108.523 151.714C101.436 152.831 95.2952 147.151 96.1773 139.805C96.5564 136.649 95.4381 135.219 93.0546 133.791C81.7778 127.035 70.5591 120.181 58.952 113.111C56.5384 111.613 54.4925 110.368 52.2637 109.011C49.3905 113.374 45.3332 115.053 40.5689 115.337ZM33.184 102.008C33.3417 106.988 35.8539 110.244 39.9593 110.789C43.911 111.315 47.9268 108.931 49.1859 105.313C50.7611 100.787 48.2587 96.1988 43.4107 94.7239C38.7433 93.304 34.7736 95.938 33.184 102.008ZM111.06 147.213C111.689 146.598 112.424 146.06 112.928 145.355C114.828 142.695 114.646 139.266 112.558 136.744C110.363 134.093 106.623 133.267 103.54 134.751C100.826 136.058 99.2925 139.073 99.7484 142.205C100.233 145.536 102.833 148.216 106.152 148.364C107.622 148.43 109.124 147.773 111.06 147.213Z" fill="#FF008C"/>
<path d="M215.116 294.662C214.953 281.363 215.042 268.08 214.875 254.801C214.84 251.969 215.558 249.997 217.85 248.362C219.902 246.899 221.744 245.142 224.47 242.849C224.47 251.455 224.47 259.221 224.474 267.6C224.465 274.787 224.452 281.362 224.232 288.044C221.321 290.354 218.615 292.557 215.91 294.76L215.587 294.773C215.587 294.773 215.277 294.68 215.116 294.662Z" fill="#FF008C"/>
<path d="M204.466 287.178C204.434 279.818 204.944 272.722 204.325 265.725C203.834 260.169 207.115 258.017 211.337 255.094C211.337 268.549 211.337 281.391 211.403 294.539C211.43 298.712 210.932 302.643 211.466 306.43C212.23 311.858 209.371 314.548 204.521 316.957C204.521 306.961 204.521 297.223 204.466 287.178Z" fill="#FF008C"/>
<path d="M194.032 306.437C194.009 295.743 194.062 285.356 194.067 274.969C194.07 268.33 194.039 268.33 200.542 264.264C200.542 280.456 200.542 296.309 200.608 312.468C200.629 313.321 200.465 313.89 200.557 314.414C201.426 319.349 199.396 322.694 194.62 324.706C192.953 323.712 192.837 322.458 193.283 320.099C194.104 315.752 193.878 311.206 194.032 306.437Z" fill="#FF008C"/>
<path d="M184.587 299.493C184.613 293.638 185.083 287.739 184.523 281.94C184.082 277.375 186.538 275.445 190.204 272.969C190.204 283.337 190.204 293.124 190.278 303.172C190.302 310.396 189.945 317.375 190.315 324.316C190.553 328.769 188.503 330.94 184.782 332.049C184.674 331.594 184.639 331.485 184.603 331.376C184.638 330.236 184.673 329.097 184.716 327.37C184.685 322.332 184.646 317.881 184.66 313.123C184.671 308.375 184.629 303.934 184.587 299.493Z" fill="#FF008C"/>
<path d="M102.549 262.298C102.606 261.992 102.664 261.687 102.714 260.864C102.645 257.675 102.583 255.003 102.521 252.332C102.576 252.029 102.632 251.725 102.675 250.964C103.01 248.225 103.358 245.944 103.807 243.858C110.445 247.845 114.083 253.064 112.301 260.986C112.209 261.391 112.379 261.854 112.374 262.568C112.353 265.507 112.385 268.168 112.355 271.097C112.328 276.756 112.364 282.145 112.4 287.534C112.4 289.8 112.4 292.067 112.4 295.211C108.996 292.465 106.216 290.383 103.662 288.053C103.01 287.459 102.863 286.084 102.845 285.062C102.751 279.67 102.773 274.275 102.7 268.574C102.681 267.962 102.716 267.658 102.742 266.855C102.671 265.004 102.61 263.651 102.549 262.298Z" fill="#FF008C"/>
<path d="M122.862 310.772C122.708 312.716 122.554 314.66 122.37 316.977C118.365 314.518 115.015 312.504 115.57 306.923C116.21 300.492 115.797 293.956 115.852 286.885C115.812 285.171 115.762 284.037 115.783 282.652C115.809 281.883 115.763 281.366 115.802 280.598C115.835 279.652 115.785 278.957 115.811 277.994C115.842 276.99 115.797 276.254 115.842 275.241C115.905 270.93 115.878 266.896 115.911 262.713C115.971 262.564 115.85 262.267 115.936 262.011C116.022 259.706 116.022 257.657 116.022 255.167C120.538 258.065 123.652 260.712 122.969 266.389C122.342 271.589 122.911 276.933 122.892 282.519C122.863 287.715 122.896 292.604 122.858 297.798C122.813 302.326 122.838 306.549 122.862 310.772Z" fill="#FF008C"/>
<path d="M133.111 306.805C133.111 312.714 133.111 318.623 133.111 325.239C129.266 322.567 125.723 320.847 126.767 315.925C127.036 314.658 126.797 313.282 126.8 311.391C126.779 306.38 126.75 301.933 126.778 297.179C126.794 291.546 126.753 286.219 126.772 280.585C126.831 275.192 126.831 270.106 126.831 264.215C129.724 266.811 132.855 267.974 133.211 271.869C133.139 277.485 133.143 282.838 133.079 288.454C133.045 294.746 133.078 300.776 133.111 306.805Z" fill="#FF008C"/>
<path d="M142.761 301.472C142.669 310.634 142.575 319.796 142.486 328.958C142.475 330.132 142.484 331.307 142.484 332.701C138.285 330.554 136.447 327.856 136.83 323.308C137.291 317.824 136.929 312.269 136.929 306.132C136.899 299.521 136.862 293.523 136.88 287.219C136.935 282.527 136.935 278.141 136.935 273.275C142.534 277.488 142.53 277.488 142.639 283.247C142.65 283.79 142.751 284.331 142.735 285.177C142.693 290.811 142.727 296.142 142.761 301.472Z" fill="#FF008C"/>
<path d="M93.4579 277.533C83.8745 270.491 74.6602 263.3 65.0832 256.63C61.171 253.906 59.7039 250.886 60.9139 245.698C72.6779 254.158 84.2419 262.473 96.007 270.876C96.208 273.512 96.208 276.061 96.208 279.102C95.0453 278.408 94.3632 278.001 93.4579 277.533Z" fill="#FF008C"/>
<path d="M305.691 72.6175C306.562 73.2177 307.652 73.8468 307.699 74.5468C307.901 77.5088 307.97 80.5077 307.706 83.4589C307.606 84.5693 306.469 85.5866 305.08 86.3836C304.948 81.6469 303.013 77.0992 305.691 72.6175Z" fill="#FF008C"/>
<path d="M21.8271 72.6065C22.3797 77.0154 22.666 81.3176 22.9539 85.6431C20.4358 86.0415 19.2902 85.5495 19.3166 83.4236C19.3535 80.441 19.2105 77.446 19.4617 74.4833C19.5224 73.7679 20.8279 73.158 21.8271 72.6065Z" fill="#FF008C"/>
<path d="M3.07124 48.7017C1.31744 47.2945 0.405402 45.9931 2.92555 44.2628C4.13024 45.3203 5.56791 46.3183 6.63386 47.6205C7.23757 48.3581 7.23131 49.5949 7.49977 50.6068C6.48805 50.3832 5.44898 50.2385 4.47627 49.9021C3.99742 49.7364 3.64138 49.2157 3.07124 48.7017Z" fill="#FF008C"/>
<path d="M321.095 50.8688C318.498 50.9028 317.808 49.8662 319.522 47.9964C320.749 46.6581 322.27 45.5899 323.868 44.223C326.579 48.2346 322.56 48.9064 321.095 50.8688Z" fill="#FF008C"/>
<path d="M184.535 331.449C184.638 331.485 184.674 331.594 184.668 331.869C184.442 331.901 184.389 331.73 184.535 331.449Z" fill="#EAB258"/>
<path d="M159.542 266.928C158.895 269.872 160.927 273.748 156.207 275.446C155.389 274.698 154.375 273.772 153.051 272.553C150.146 270.025 147.553 267.791 144.907 265.333C142.119 262.402 139.253 259.809 136.706 256.934C135.653 255.745 134.72 253.96 134.694 252.43C134.533 242.708 134.688 232.981 134.619 223.256C134.605 221.267 135.293 220.066 136.906 218.919C142.836 214.701 148.649 210.317 154.698 205.91C156.12 204.388 157.502 204.562 158.388 205.967C159.024 206.975 159.277 208.378 159.286 209.608C159.411 228.714 159.469 247.821 159.542 266.928ZM148.971 260.253C149.558 261.573 150.028 262.975 150.844 264.133C150.983 264.33 153.104 263.72 153.417 263.059C153.831 262.187 153.671 260.116 153.218 259.939C152.065 259.488 150.613 259.802 148.971 260.253Z" fill="#FF008C"/>
<path d="M174.619 207.497C179.345 210.925 183.941 214.555 188.845 217.705C191.791 219.597 192.846 221.714 192.742 225.217C192.477 234.148 192.757 243.093 192.591 252.029C192.562 253.569 191.801 255.481 190.717 256.554C184.29 262.913 177.668 269.075 171.036 275.376C168.445 274.614 167.72 272.717 167.991 270.121C168.128 268.812 168.007 267.476 167.995 265.598C167.951 263.937 167.915 262.832 167.944 261.52C167.967 260.748 167.924 260.18 167.938 259.307C168.013 242.405 168.06 225.809 168.014 209.213C168.008 206.97 168.608 205.412 170.704 204.736C172.099 205.72 173.359 206.609 174.619 207.497ZM175.214 264.121C176.308 263.344 177.794 262.767 178.335 261.707C178.615 261.159 177.422 259.43 176.505 258.86C175.954 258.516 173.824 259.397 173.832 259.689C173.871 261.099 174.395 262.495 175.214 264.121Z" fill="#FF008C"/>
<path d="M239.76 230.302C249.078 222.527 258.216 214.902 267.524 207.137C267.524 213.247 267.587 218.946 267.451 224.64C267.432 225.429 266.588 226.411 265.861 226.939C254.508 235.194 243.111 243.389 231.056 252.079C231.056 247.096 230.772 242.636 231.224 238.252C231.365 236.885 233.436 235.658 234.731 234.486C236.288 233.076 237.959 231.791 239.76 230.302Z" fill="#FF008C"/>
<path d="M263.479 233.405C264.658 232.6 265.648 231.943 267.004 231.044C267.004 233.989 267.102 236.57 266.941 239.135C266.896 239.846 266.228 240.706 265.602 241.163C254.546 249.223 243.453 257.233 232.361 265.244C232.108 265.427 231.771 265.492 231.468 265.614C229.673 259.87 230.568 257.153 235.104 253.897C244.517 247.141 253.896 240.338 263.479 233.405Z" fill="#FF008C"/>
<path d="M231.548 270.364C241.341 263.397 251.133 256.431 260.924 249.462C262.618 248.256 264.305 247.039 266.028 245.804C267.419 250.76 266.794 252.839 263.061 255.623C254.481 262.024 245.888 268.409 236.954 275.065C234.882 276.548 233.157 277.767 230.62 279.559C230.995 275.848 231.272 273.106 231.548 270.364Z" fill="#FF008C"/>
<path d="M147.139 199.289C147.566 200.059 147.993 200.828 148.642 201.97C150.066 203.818 149.559 204.729 148.074 205.733C143.049 209.131 138.186 212.773 133.118 216.102C130.964 217.517 130.043 219.019 130.088 221.696C130.258 231.849 130.152 242.006 130.121 252.162C130.114 254.714 127.557 256.72 125.957 255.306C121.944 251.762 115.989 249.374 117.379 242.174C117.54 241.337 116.637 240.295 116.227 239.348C115.903 239.454 115.58 239.56 115.256 239.666C114.771 241.163 114.286 242.659 113.767 244.26C111.505 242.772 109.596 241.516 107.623 240.038C105.434 238.07 103.309 236.323 101.185 234.576C90.8177 226.115 80.4151 217.696 70.1266 209.139C68.775 208.015 67.6272 206.325 67.0333 204.664C63.8319 195.716 60.7184 186.731 57.8619 177.667C57.2586 175.753 57.2911 173.244 58.0054 171.384C60.0935 165.945 62.6739 160.695 65.1971 155.069C69.9391 157.468 74.5036 159.65 78.9161 162.106C79.9108 162.66 80.5868 164.08 81.0515 165.245C84.3696 173.559 87.5255 181.939 90.9184 190.222C91.4802 191.593 92.7247 193.057 94.0346 193.69C103.688 198.353 113.462 202.765 123.137 207.383C125.13 208.334 126.665 208.397 128.608 207.186C133.2 204.323 137.961 201.728 142.777 198.841C143.629 198.329 144.358 198 145.468 197.655C146.278 198.188 146.709 198.739 147.139 199.289ZM76.3441 195.27C74.0281 196.048 72.7317 197.781 73.4742 200.029C73.8992 201.315 75.4627 202.735 76.787 203.098C78.9002 203.678 80.6341 202.491 81.1263 200.162C81.6727 197.575 80.1341 195.841 76.3441 195.27Z" fill="#FF008C"/>
<path d="M87.2245 245.877C78.9588 239.801 70.7305 233.674 62.3986 227.691C60.5278 226.347 59.5494 224.973 59.6305 222.569C59.8008 217.518 59.6823 212.457 59.6823 206.95C71.7168 217.141 83.7719 227.349 96.0467 237.96C96.3202 242.351 96.3741 246.339 96.3769 250.491C96.3597 250.765 96.3935 250.874 96.3217 251.208C93.2189 249.581 90.2217 247.729 87.2245 245.877Z" fill="#FF008C"/>
<path d="M138.698 189.118C138.876 189.476 138.832 189.756 138.712 190.238C134.871 192.512 131.167 194.71 127.303 196.577C126.147 197.136 124.331 197.252 123.179 196.747C116.408 193.773 109.693 190.658 103.085 187.34C101.609 186.6 100.128 185.064 99.5212 183.546C97.525 178.555 95.9291 173.404 94.7495 167.611C109.325 174.754 123.901 181.897 138.698 189.118Z" fill="#FF008C"/>
<path d="M94.959 255.667C95.6021 258.93 96.2452 262.194 96.8884 265.457C96.4995 265.621 96.1106 265.786 95.7217 265.951C94.3144 264.975 92.8881 264.026 91.5028 263.021C82.3963 256.411 73.4045 249.635 64.1384 243.258C61.0508 241.133 59.5613 238.818 59.9122 235.17C60.0371 233.872 59.9322 232.552 59.9322 230.406C68.6697 236.788 76.9679 242.85 85.5675 249.208C88.899 251.559 91.929 253.613 94.959 255.667Z" fill="#FF008C"/>
<path d="M102.339 252.485C102.583 255.003 102.645 257.675 102.626 260.644C102.416 258.173 102.286 255.405 102.339 252.485Z" fill="#FF008C"/>
<path d="M102.376 262.428C102.61 263.651 102.671 265.004 102.657 266.639C102.455 265.467 102.329 264.013 102.376 262.428Z" fill="#FF008C"/>
<path d="M160.613 117.811C162.757 119.423 164.6 119.24 166.597 117.941C168.956 116.404 171.456 115.086 174.186 113.504C174.186 118.204 174.258 122.361 174.108 126.511C174.085 127.141 173.118 127.876 172.432 128.323C164.173 133.714 164.196 133.648 155.5 128.84C153.631 127.806 152.713 126.693 152.831 124.472C153.013 121.072 152.879 117.654 152.879 113.507C155.695 115.064 158.046 116.364 160.613 117.811Z" fill="#FF008C"/>
<path d="M224.451 291.642C224.829 291.511 225.104 291.512 225.584 291.514C225.783 291.811 225.775 292.108 225.703 292.618C225.207 292.479 224.777 292.127 224.451 291.642Z" fill="#FF008C"/>
<path d="M195.648 194.515C193.343 193.177 191.26 191.872 188.95 190.524C188.63 190.194 188.538 189.906 188.486 189.396C203.235 181.921 217.944 174.669 233.593 166.953C231.257 173.758 229.281 179.661 227.152 185.51C226.91 186.176 225.874 186.655 225.109 187.015C218.023 190.344 210.853 193.501 203.852 196.995C201.497 198.171 200.155 196.767 198.22 195.979C197.283 195.503 196.576 195.026 195.648 194.515Z" fill="#FF008C"/>
<path d="M115.811 277.994C115.635 277.457 115.535 276.652 115.594 275.682C115.797 276.254 115.842 276.99 115.811 277.994Z" fill="#FF008C"/>
<path d="M115.783 282.652C115.618 282.315 115.524 281.727 115.574 280.993C115.763 281.366 115.809 281.883 115.783 282.652Z" fill="#FF008C"/>
<path d="M167.944 261.52C167.756 261.08 167.633 260.434 167.696 259.701C167.924 260.18 167.966 260.748 167.944 261.52Z" fill="#EAB258"/>
<path d="M96.3769 250.491C96.6069 250.467 96.6532 250.639 96.4972 250.913C96.3936 250.874 96.3597 250.765 96.3769 250.491Z" fill="#ECB358"/>
<path d="M285.752 107.591C282.71 107.155 281.1 105.574 280.948 102.755C280.813 100.231 282.135 98.1259 284.463 97.8479C286.244 97.6351 288.673 98.3955 289.982 99.6157C292.5 101.964 290.839 107.562 285.752 107.591Z" fill="#FF008C"/>
<path d="M221.164 145.519C217.041 144.665 215.237 141.932 217.158 139.367C218.021 138.215 220.196 137.186 221.491 137.458C222.782 137.73 224.332 139.553 224.667 140.958C225.196 143.184 223.892 144.952 221.164 145.519Z" fill="#FF008C"/>
<path d="M41.2022 97.4732C44.8542 98.2821 46.6675 100.221 46.3833 103.052C46.1228 105.648 44.632 107.291 41.9608 107.644C39.2757 107.998 36.983 106.386 36.2504 103.692C35.4502 100.75 37.2373 98.374 41.2022 97.4732Z" fill="#FF008C"/>
<path d="M109.034 137.74C111.318 139.689 111.973 142.011 110.01 143.904C108.946 144.93 106.201 145.579 105.163 144.915C103.898 144.107 102.827 141.591 103.104 140.076C103.64 137.152 106.109 136.629 109.034 137.74Z" fill="#FF008C"/>
</svg>
